# xmcd CD database file
#
# Track frame offsets:
#	150
#	16045
#	30245
#	53164
#	69100
#	93682
#	110452
#	123545
#	144055
#	162077
#
# Disc length: 2437 seconds
#
# Revision: 1
# Processed by: cddbd v1.5.2PL0 Copyright (c) Steve Scherf et al.
# Submitted via: CDex 1.51
#
DISCID=7009830a
DTITLE=Kevin McNiven - It's Wyoming
DYEAR=1900
DGENRE=Country
TTITLE0=It's Wyoming
TTITLE1=She Tought Me To Yodel
TTITLE2=Annie Laurie (Bad Half Hour)
TTITLE3=Saddle Tramp
TTITLE4=Night Riders Lament
TTITLE5=Four Strong Winds
TTITLE6=Knot In The Devil's Tail
TTITLE7=The Old Double Diamond
TTITLE8=Wyoming On My Mind
TTITLE9=Cowboy's Lullabye
EXTD=
EXTT0=
EXTT1=
EXTT2=
EXTT3=
EXTT4=
EXTT5=
EXTT6=
EXTT7=
EXTT8=
EXTT9=
PLAYORDER=
